<svg width="60" height="60" viewBox="0 0 60 60" fill="none" xmlns="http://www.w3.org/2000/svg">
<rect x="1" y="5.59033" width="58" height="53.4098" rx="9" stroke="#27496C" stroke-width="2"/>
<line x1="12.55" y1="1.60938" x2="12.55" y2="9.44544" stroke="#27496C" stroke-width="2" stroke-linecap="round"/>
<line x1="31.6001" y1="1.60938" x2="31.6001" y2="9.44544" stroke="#27496C" stroke-width="2" stroke-linecap="round"/>
<line x1="50.6499" y1="1.60938" x2="50.6499" y2="9.44544" stroke="#27496C" stroke-width="2" stroke-linecap="round"/>
<rect x="8.8501" y="14.2622" width="10.5" height="8.19672" rx="3" fill="#FFE0B2"/>
<rect x="8.8501" y="29.0166" width="10.5" height="8.19672" rx="3" fill="#C28327"/>
<rect x="8.8501" y="43.7705" width="10.5" height="8.19672" rx="3" fill="#E0E0E0"/>
<rect x="25.3501" y="14.2622" width="10.5" height="8.19672" rx="3" fill="#FFE0B2"/>
<rect x="25.3501" y="29.0166" width="10.5" height="8.19672" rx="3" fill="#E0E0E0"/>
<rect x="25.3501" y="43.7705" width="10.5" height="8.19672" rx="3" fill="#E0E0E0"/>
<rect x="41.8501" y="14.2622" width="10.5" height="8.19672" rx="3" fill="#FFE0B2"/>
<rect x="41.8501" y="29.0166" width="10.5" height="8.19672" rx="3" fill="#E0E0E0"/>
<rect x="41.8501" y="43.7705" width="10.5" height="8.19672" rx="3" fill="#E0E0E0"/>
</svg>